<?xml version="1.0" encoding="UTF-8" standalone="no"?>
<svg
   xmlns="http://www.w3.org/2000/svg"
   xmlns:xlink="http://www.w3.org/1999/xlink"
   id="svg2"
   height="700"
   width="850">

<rect x="300" width="100" height="200" fill="pink"></rect>
<circle></circle>

<polyline points="50,375
                    150,375 150,325 250,325 250,375
                    350,375 350,250 450,250 450,375
                    550,375 550,175 650,175 650,375
                    750,375 750,100 850,100 850,375
                    950,375 950,25 1050,25 1050,375
                    1150,375"
					fill="none" stroke="blue" stroke-width="5" 
					transform="translate(0,100),scale(0.5)"></polyline>
					
<polygon fill="red" stroke="blue" stroke-width="10" transform="translate(350,320)"
            points="350,75  379,161 469,161 397,215
                    423,301 350,250 277,301 303,215
                    231,161 321,161" />


<g id="g1" fill="maroon" font-size="30">
<text x="200" y="550" font-size="40" fill="#555">Oh, break a leg, Frank!</text>
<ellipse cx="500" cy="200" rx="75" ry="40" fill="orange"/>
<circle cx="300" cy="350" r="20" stroke="#5511DD" fill="lightblue" stroke-width="5"></circle>
</g>

<text x="0" y="100" font-size="80" fill="#00BB00">Doing text</text>

<g fill="pink" stroke="red" stroke-width="5">
	<ellipse cx="480" cy="360" rx="75" ry="105" fill="inherit"/>
</g>
<circle cx="500" cy="50" r="30" stroke="blue" fill="lightblue" stroke-width="3"/>
</svg>
