<svg xmlns="http://www.w3.org/2000/svg" version="1.1" width="820pt" height="820pt" viewBox="0 0 820 820">
	<g fill="none" stroke="black" stroke-dasharray="2,4">
		<circle cx="410" cy="410" r="400.0"/>
	</g>
	<g fill="none" stroke="blue">
		<path d="M444,808 A31,31 0 0,0 381,808"/>
		<path d="M165,726 A331,331 0 0,0 53,228"/>
		<path d="M14,466 A96,96 0 0,0 31,280"/>
		<path d="M466,805 A45,45 0 0,0 375,808"/>
		<path d="M152,103 A14,14 0 0,0 174,86"/>
		<path d="M511,796 A31,31 0 0,0 449,808"/>
		<path d="M31,539 A14,14 0 0,0 23,511"/>
		<path d="M280,31 A503,503 0 0,0 808,370"/>
		<path d="M517,795 A45,45 0 0,0 427,809"/>
		<path d="M778,254 A31,31 0 0,0 798,313"/>
		<path d="M438,808 A14,14 0 0,0 410,810"/>
		<path d="M264,782 A31,31 0 0,0 208,755"/>
		<path d="M15,478 A603,603 0 0,0 500,20"/>
		<path d="M461,806 A14,14 0 0,0 432,809"/>
		<path d="M100,156 A31,31 0 0,0 143,111"/>
		<path d="M483,803 A14,14 0 0,0 455,807"/>
		<path d="M228,766 A405,405 0 0,0 56,223"/>
		<path d="M330,17 A429,429 0 0,0 806,358"/>
		<path d="M506,798 A14,14 0 0,0 478,804"/>
		<path d="M746,193 A31,31 0 0,0 776,249"/>
		<path d="M533,790 A17,17 0 0,0 500,799"/>
		<path d="M41,565 A31,31 0 0,0 21,506"/>
		<path d="M51,586 A45,45 0 0,0 20,500"/>
		<path d="M27,528 A720,720 0 0,0 511,23"/>
		<path d="M528,792 A1173,1173 0 0,0 83,179"/>
		<path d="M148,107 A31,31 0 0,0 198,70"/>
		<path d="M53,591 A84,84 0 0,0 10,432"/>
		<path d="M495,800 A1006,1006 0 0,0 79,184"/>
		<path d="M270,784 A45,45 0 0,0 188,743"/>
		<path d="M421,10 A331,331 0 0,0 805,347"/>
		<path d="M16,336 A14,14 0 0,0 23,308"/>
		<path d="M421,809 A771,771 0 0,0 76,188"/>
		<path d="M733,174 A17,17 0 0,0 752,203"/>
		<path d="M228,53 A117,117 0 0,0 449,11"/>
		<path d="M404,809 A720,720 0 0,0 73,193"/>
		<path d="M243,773 A429,429 0 0,0 58,218"/>
		<path d="M64,611 A1006,1006 0 0,0 522,26"/>
		<path d="M549,35 A45,45 0 0,0 631,76"/>
		<path d="M539,788 A1173,1173 0 0,1 539,31"/>
		<path d="M188,76 A17,17 0 0,0 218,58"/>
		<path d="M79,635 A117,117 0 0,0 10,421"/>
		<path d="M807,455 A96,96 0 0,0 743,631"/>
		<path d="M370,808 A642,642 0 0,0 70,198"/>
		<path d="M427,10 A17,17 0 0,0 461,13"/>
		<path d="M15,341 A45,45 0 0,0 41,254"/>
		<path d="M347,805 A117,117 0 0,0 143,708"/>
		<path d="M704,139 A43,43 0 0,0 755,208"/>
		<path d="M208,64 A642,642 0 0,0 808,381"/>
		<path d="M786,544 A43,43 0 0,0 749,621"/>
		<path d="M203,752 A31,31 0 0,0 152,716"/>
		<path d="M86,645 A17,17 0 0,0 67,616"/>
		<path d="M243,46 A43,43 0 0,0 324,19"/>
		<path d="M596,56 A45,45 0 0,0 671,107"/>
		<path d="M773,576 A22,22 0 0,0 752,616"/>
		<path d="M184,79 A43,43 0 0,0 259,39"/>
		<path d="M784,549 A17,17 0 0,0 771,581"/>
		<path d="M275,786 A475,475 0 0,0 61,213"/>
		<path d="M381,11 A14,14 0 0,0 409,10"/>
		<path d="M313,21 A14,14 0 0,0 341,15"/>
		<path d="M788,280 A14,14 0 0,0 796,308"/>
		<path d="M10,392 A45,45 0 0,0 24,302"/>
		<path d="M324,800 A22,22 0 0,0 280,788"/>
		<path d="M35,270 A17,17 0 0,0 48,238"/>
		<path d="M696,131 A96,96 0 0,0 792,291"/>
		<path d="M165,93 A771,771 0 0,0 809,392"/>
		<path d="M799,500 A31,31 0 0,0 780,560"/>
		<path d="M353,805 A603,603 0 0,0 67,203"/>
		<path d="M58,601 A14,14 0 0,0 46,576"/>
		<path d="M640,83 A14,14 0 0,0 663,100"/>
		<path d="M581,48 A14,14 0 0,0 606,61"/>
		<path d="M804,478 A45,45 0 0,0 778,565"/>
		<path d="M115,139 A96,96 0 0,0 270,35"/>
		<path d="M596,763 A299,299 0 0,1 802,330"/>
		<path d="M809,432 A31,31 0 0,0 800,495"/>
		<path d="M223,763 A45,45 0 0,0 148,712"/>
		<path d="M336,16 A14,14 0 0,0 364,12"/>
		<path d="M11,381 A14,14 0 0,0 14,353"/>
		<path d="M809,427 A45,45 0 0,0 795,517"/>
		<path d="M565,778 A603,603 0 0,1 688,123"/>
		<path d="M89,170 A1173,1173 0 0,0 809,404"/>
		<path d="M798,506 A14,14 0 0,0 790,533"/>
		<path d="M763,596 A96,96 0 0,0 640,736"/>
		<path d="M39,560 A14,14 0 0,0 29,533"/>
		<path d="M680,115 A22,22 0 0,0 712,148"/>
		<path d="M803,483 A14,14 0 0,0 796,511"/>
		<path d="M10,415 A503,503 0 0,0 495,19"/>
		<path d="M26,522 A43,43 0 0,0 11,438"/>
		<path d="M806,461 A14,14 0 0,0 802,489"/>
		<path d="M549,784 A771,771 0 0,1 635,79"/>
		<path d="M375,11 A31,31 0 0,0 438,11"/>
		<path d="M11,449 A22,22 0 0,0 10,404"/>
		<path d="M808,438 A14,14 0 0,0 805,466"/>
		<path d="M555,782 A720,720 0 0,1 649,89"/>
		<path d="M103,152 A14,14 0 0,0 123,131"/>
		<path d="M810,410 A17,17 0 0,0 808,444"/>
		<path d="M238,771 A14,14 0 0,0 213,758"/>
		<path d="M347,14 A405,405 0 0,0 805,353"/>
		<path d="M591,53 A84,84 0 0,0 719,156"/>
		<path d="M809,415 A1173,1173 0 0,0 89,649"/>
		<path d="M12,364 A429,429 0 0,0 483,16"/>
		<path d="M771,238 A14,14 0 0,0 782,264"/>
		<path d="M808,449 A1006,1006 0 0,0 93,654"/>
		<path d="M761,601 A84,84 0 0,0 654,726"/>
		<path d="M73,626 A31,31 0 0,0 43,570"/>
		<path d="M13,461 A84,84 0 0,0 26,297"/>
		<path d="M21,313 A14,14 0 0,0 29,286"/>
		<path d="M793,522 A771,771 0 0,0 96,658"/>
		<path d="M544,786 A1006,1006 0 0,1 570,43"/>
		<path d="M135,119 A14,14 0 0,0 156,100"/>
		<path d="M788,539 A720,720 0 0,0 100,663"/>
		<path d="M341,804 A96,96 0 0,0 170,730"/>
		<path d="M544,33 A117,117 0 0,0 726,165"/>
		<path d="M46,243 A299,299 0 0,0 466,14"/>
		<path d="M776,570 A642,642 0 0,0 103,667"/>
		<path d="M33,275 A331,331 0 0,0 472,14"/>
		<path d="M768,233 A45,45 0 0,0 799,319"/>
		<path d="M768,586 A603,603 0 0,0 107,671"/>
		<path d="M218,761 A14,14 0 0,0 193,746"/>
		<path d="M14,472 A117,117 0 0,0 43,249"/>
		<path d="M766,591 A117,117 0 0,0 611,755"/>
		<path d="M533,29 A17,17 0 0,0 565,41"/>
		<path d="M96,161 A45,45 0 0,0 161,96"/>
		<path d="M233,51 A96,96 0 0,0 415,10"/>
		<path d="M591,766 A331,331 0 0,1 793,297"/>
		<path d="M581,771 A429,429 0 0,1 758,213"/>
		<path d="M297,26 A475,475 0 0,0 807,364"/>
		<path d="M586,768 A405,405 0 0,1 766,228"/>
		<path d="M743,188 A45,45 0 0,0 784,270"/>
		<path d="M249,43 A22,22 0 0,0 291,27"/>
		<path d="M758,606 A43,43 0 0,0 708,676"/>
		<path d="M336,803 A84,84 0 0,0 184,740"/>
		<path d="M19,495 A642,642 0 0,0 506,21"/>
		<path d="M755,611 A22,22 0 0,0 730,649"/>
		<path d="M131,123 A45,45 0 0,0 203,67"/>
		<path d="M570,776 A503,503 0 0,1 730,170"/>
		<path d="M198,749 A14,14 0 0,0 174,733"/>
		<path d="M308,23 A31,31 0 0,0 370,11"/>
		<path d="M621,70 A14,14 0 0,0 645,86"/>
		<path d="M716,667 A14,14 0 0,0 696,688"/>
		<path d="M749,198 A14,14 0 0,0 763,223"/>
		<path d="M719,663 A31,31 0 0,0 676,708"/>
		<path d="M576,773 A475,475 0 0,1 740,184"/>
		<path d="M33,544 A771,771 0 0,0 517,24"/>
		<path d="M560,39 A14,14 0 0,0 586,51"/>
		<path d="M723,658 A45,45 0 0,0 658,723"/>
		<path d="M170,89 A14,14 0 0,0 193,73"/>
		<path d="M61,606 A96,96 0 0,0 10,427"/>
		<path d="M671,712 A31,31 0 0,0 621,749"/>
		<path d="M330,802 A43,43 0 0,0 249,776"/>
		<path d="M455,12 A299,299 0 0,0 804,341"/>
		<path d="M13,358 A14,14 0 0,0 17,330"/>
		<path d="M688,696 A45,45 0 0,0 616,752"/>
		<path d="M708,143 A22,22 0 0,0 736,179"/>
		<path d="M223,56 A603,603 0 0,0 808,375"/>
		<path d="M700,684 A14,14 0 0,0 680,704"/>
		<path d="M179,736 A14,14 0 0,0 156,719"/>
		<path d="M83,640 A1173,1173 0 0,0 528,27"/>
		<path d="M555,37 A31,31 0 0,0 611,64"/>
		<path d="M684,700 A14,14 0 0,0 663,719"/>
		<path d="M213,61 A22,22 0 0,0 254,41"/>
		<path d="M291,792 A503,503 0 0,0 64,208"/>
		<path d="M667,716 A14,14 0 0,0 645,733"/>
		<path d="M733,645 A17,17 0 0,0 712,671"/>
		<path d="M404,10 A14,14 0 0,0 432,10"/>
		<path d="M20,319 A31,31 0 0,0 39,259"/>
		<path d="M649,730 A14,14 0 0,0 626,746"/>
		<path d="M700,135 A84,84 0 0,0 786,275"/>
		<path d="M179,83 A720,720 0 0,0 809,387"/>
		<path d="M631,743 A17,17 0 0,0 601,761"/>
		<path d="M792,528 A14,14 0 0,0 782,555"/>
		<path d="M70,621 A14,14 0 0,0 56,596"/>
		<path d="M616,67 A31,31 0 0,0 667,103"/>
		<path d="M606,758 A299,299 0 0,0 131,696"/>
		<path d="M127,127 A84,84 0 0,0 264,37"/>
		<path d="M635,740 A331,331 0 0,0 127,692"/>
		<path d="M161,723 A17,17 0 0,0 135,700"/>
		<path d="M358,13 A14,14 0 0,0 387,10"/>
		<path d="M76,631 A45,45 0 0,0 35,549"/>
		<path d="M10,387 A31,31 0 0,0 19,324"/>
		<path d="M27,291 A14,14 0 0,0 37,264"/>
		<path d="M692,692 A405,405 0 0,0 123,688"/>
		<path d="M692,127 A117,117 0 0,0 800,324"/>
		<path d="M111,143 A1006,1006 0 0,0 809,398"/>
		<path d="M704,680 A429,429 0 0,0 119,684"/>
		<path d="M17,489 A22,22 0 0,0 11,444"/>
		<path d="M48,581 A14,14 0 0,0 37,555"/>
		<path d="M658,96 A17,17 0 0,0 684,119"/>
		<path d="M726,654 A475,475 0 0,0 115,680"/>
		<path d="M805,472 A84,84 0 0,0 746,626"/>
		<path d="M93,165 A117,117 0 0,0 275,33"/>
		<path d="M795,302 A17,17 0 0,0 803,336"/>
		<path d="M736,640 A503,503 0 0,0 111,676"/>
		<path d="M286,790 A17,17 0 0,0 254,778"/>
		<path d="M353,14 A45,45 0 0,0 444,11"/>
		<path d="M10,410 A17,17 0 0,0 11,375"/>
		<path d="M522,793 A117,117 0 0,0 297,793"/>
		<path d="M560,780 A642,642 0 0,1 676,111"/>
		<path d="M10,398 A475,475 0 0,0 489,17"/>
		<path d="M86,174 A17,17 0 0,0 107,148"/>
		<path d="M238,48 A84,84 0 0,0 398,10"/>
		<path d="M489,802 A96,96 0 0,0 302,795"/>
		<path d="M139,704 A299,299 0 0,0 51,233"/>
		<path d="M654,93 A43,43 0 0,0 716,152"/>
		<path d="M472,805 A84,84 0 0,0 308,796"/>
		<path d="M809,421 A117,117 0 0,0 740,635"/>
		<path d="M780,259 A14,14 0 0,0 790,286"/>
		<path d="M398,809 A43,43 0 0,0 313,798"/>
		<path d="M24,517 A17,17 0 0,0 16,483"/>
		<path d="M286,29 A17,17 0 0,0 319,20"/>
		<path d="M12,455 A43,43 0 0,0 11,370"/>
		<path d="M364,807 A22,22 0 0,0 319,799"/>
		<path d="M119,135 A14,14 0 0,0 139,115"/>
		<path d="M392,809 A17,17 0 0,0 358,806"/>
		<path d="M259,780 A14,14 0 0,0 233,768"/>
		<path d="M302,24 A45,45 0 0,0 392,10"/>
		<path d="M576,46 A96,96 0 0,0 723,161"/>
		<path d="M601,58 A14,14 0 0,0 626,73"/>
		<path d="M415,809 A14,14 0 0,0 387,809"/>
		<path d="M14,347 A405,405 0 0,0 478,15"/>
		<path d="M761,218 A14,14 0 0,0 773,243"/>
	</g>
</svg>