<?xml version="1.0" encoding="UTF-8" standalone="no"?>
<!-- Created with Inkscape (http://www.inkscape.org/) -->

<svg
   xmlns:dc="http://purl.org/dc/elements/1.1/"
   xmlns:cc="http://creativecommons.org/ns#"
   xmlns:rdf="http://www.w3.org/1999/02/22-rdf-syntax-ns#"
   xmlns:svg="http://www.w3.org/2000/svg"
   xmlns="http://www.w3.org/2000/svg"
   xmlns:sodipodi="http://sodipodi.sourceforge.net/DTD/sodipodi-0.dtd"
   xmlns:inkscape="http://www.inkscape.org/namespaces/inkscape"
   sodipodi:docname="inkscape-1.svg"
   inkscape:version="0.47 r22583"
   version="1.1"
   id="svg2"
   height="1052.3622047"
   width="744.09448819">
  <defs
     id="defs4">
    <inkscape:perspective
       sodipodi:type="inkscape:persp3d"
       inkscape:vp_x="-1075.504 : -1654.4323 : 1"
       inkscape:vp_y="0 : 7000 : 0"
       inkscape:vp_z="4133.1574 : -1654.4323 : 1"
       inkscape:persp3d-origin="1528.8267 : -2882.1882 : 1"
       id="perspective10" />
  </defs>
  <sodipodi:namedview
     id="base"
     pagecolor="#ffffff"
     bordercolor="#666666"
     borderopacity="1.0"
     inkscape:pageopacity="0.0"
     inkscape:pageshadow="2"
     inkscape:zoom="2.4484801"
     inkscape:cx="230.19194"
     inkscape:cy="870.4408"
     inkscape:document-units="px"
     inkscape:current-layer="svg2"
     showgrid="false"
     inkscape:window-width="1406"
     inkscape:window-height="858"
     inkscape:window-x="0"
     inkscape:window-y="0"
     inkscape:window-maximized="0"
     inkscape:snap-page="true" />
  <metadata
     id="metadata7">
    <rdf:RDF>
      <cc:Work
         rdf:about="">
        <dc:format>image/svg+xml</dc:format>
        <dc:type
           rdf:resource="http://purl.org/dc/dcmitype/StillImage" />
      </cc:Work>
    </rdf:RDF>
  </metadata>
  <path
     id="path3650"
     d="M 103.15908,250.82776 C 80.97006,246.36162 75.6215,219.48673 71.00297,200.70601 64.84304,162.82187 65.17764,120.84028 84.66081,86.67237 c 12.05134,-24.4202 39.74845,-7.27391 43.72354,13.10603 14.41531,40.85312 14.4487,87.5714 -1.23893,128.06318 -4.66053,9.9484 -11.5836,22.37382 -23.98634,22.98618 z"
     style="fill:#d45500;stroke-width:1;stroke-miterlimit:4;stroke-dasharray:none" />
  <rect
     y="-320.77713"
     x="-118.53599"
     height="26.866486"
     width="80.817421"
     id="rect3740"
     style="fill:#0000ff;stroke-width:1;stroke-miterlimit:4;stroke-dasharray:none"
     transform="matrix(-0.70710678,0.70710678,-0.70710678,-0.70710678,0,0)" />
  <path
     style="fill:none;stroke:#000000;stroke-width:1px;stroke-linecap:butt;stroke-linejoin:miter;stroke-opacity:1"
     d="m 220.91401,141.18787 c -0.17275,1.97271 0.23082,3.76472 0.40842,5.71784 -0.074,2.35665 0.48958,5.01877 -1.14611,7.00923 -1.15448,1.71047 -2.13275,3.66849 -4.02704,4.66319 -1.53856,1.66128 -3.10676,3.4021 -5.44568,3.84741 -1.26903,0.82266 -3.14139,0.24969 -4.59358,0.82809 -1.56292,-0.13641 -3.33257,0.4687 -4.57225,-0.82015 -2.34084,-1.8111 -3.93214,-4.39532 -5.94559,-6.54261 -1.36567,-1.88232 -2.7159,-3.78321 -4.49258,-5.30941 -0.88555,-1.7306 -2.73728,-2.43443 -3.89278,-3.93564 -1.85216,-1.04352 -3.28379,-2.68533 -5.08535,-3.83337 -1.72058,-1.92461 -4.15524,-1.77308 -6.54171,-1.62458 -1.29613,0.79765 -2.35091,1.91465 -3.42493,3.01652 -1.19914,0.97947 -1.91779,2.35274 -2.09815,3.71844 -0.40996,0.87942 -0.0977,2.0266 -0.19475,3.0294 -0.002,3.41558 0.002,6.83575 0,10.24806 -0.841,0.87962 -2.39099,0.91775 -3.64316,1.22525 -0.69156,0 -1.38311,0 -2.07467,0"
     id="path4484" />
</svg>
