<?xml version="1.0" encoding="UTF-8"?>
<!DOCTYPE svg PUBLIC "-//W3C//DTD SVG 1.1//EN" "http://www.w3.org/Graphics/SVG/1.1/DTD/svg11.dtd"><svg version="1.1" viewBox="0 0 21000 29700" preserveAspectRatio="xMidYMid" fill-rule="evenodd" xmlns="http://www.w3.org/2000/svg" xmlns:xlink="http://www.w3.org/1999/xlink"><g visibility="visible" id="Default"><desc>Master slide</desc><g style="stroke:none;fill:none"><rect x="988" y="988" width="19026" height="27726"/></g></g><g visibility="visible" id="page1"><desc>Slide</desc><g><desc>Drawing</desc><g><g><defs><clipPath id="clip1"><path d="M 13738,20038 L 7254,9475 16836,12143 13738,20038 Z"/></clipPath></defs><g style="clip-path:URL(#clip1)"><g style="stroke:none;fill:rgb(128,0,0)"><path d="M 7252,9473 L 16838,9473 16838,9473 7252,9473 Z"/><path d="M 7252,9473 L 16838,9473 16838,9514 7252,9514 Z"/><path d="M 7252,9514 L 16838,9514 16838,9555 7252,9555 Z"/></g><g style="stroke:none;fill:rgb(128,1,1)"><path d="M 7252,9555 L 16838,9555 16838,9597 7252,9597 Z"/></g><g style="stroke:none;fill:rgb(129,2,2)"><path d="M 7252,9597 L 16838,9597 16838,9638 7252,9638 Z"/></g><g style="stroke:none;fill:rgb(129,3,3)"><path d="M 7252,9638 L 16838,9638 16838,9680 7252,9680 Z"/></g><g style="stroke:none;fill:rgb(130,4,4)"><path d="M 7252,9680 L 16838,9680 16838,9721 7252,9721 Z"/></g><g style="stroke:none;fill:rgb(130,5,5)"><path d="M 7252,9721 L 16838,9721 16838,9763 7252,9763 Z"/></g><g style="stroke:none;fill:rgb(131,6,6)"><path d="M 7252,9763 L 16838,9763 16838,9804 7252,9804 Z"/></g><g style="stroke:none;fill:rgb(131,7,7)"><path d="M 7252,9804 L 16838,9804 16838,9845 7252,9845 Z"/></g><g style="stroke:none;fill:rgb(132,8,8)"><path d="M 7252,9845 L 16838,9845 16838,9887 7252,9887 Z"/></g><g style="stroke:none;fill:rgb(132,9,9)"><path d="M 7252,9887 L 16838,9887 16838,9928 7252,9928 Z"/></g><g style="stroke:none;fill:rgb(133,10,10)"><path d="M 7252,9928 L 16838,9928 16838,9970 7252,9970 Z"/></g><g style="stroke:none;fill:rgb(133,11,11)"><path d="M 7252,9970 L 16838,9970 16838,10011 7252,10011 Z"/></g><g style="stroke:none;fill:rgb(134,12,12)"><path d="M 7252,10011 L 16838,10011 16838,10053 7252,10053 Z"/></g><g style="stroke:none;fill:rgb(134,13,13)"><path d="M 7252,10053 L 16838,10053 16838,10094 7252,10094 Z"/></g><g style="stroke:none;fill:rgb(135,14,14)"><path d="M 7252,10094 L 16838,10094 16838,10136 7252,10136 Z"/></g><g style="stroke:none;fill:rgb(135,15,15)"><path d="M 7252,10136 L 16838,10136 16838,10177 7252,10177 Z"/></g><g style="stroke:none;fill:rgb(136,16,16)"><path d="M 7252,10177 L 16838,10177 16838,10218 7252,10218 Z"/></g><g style="stroke:none;fill:rgb(136,17,17)"><path d="M 7252,10218 L 16838,10218 16838,10260 7252,10260 Z"/></g><g style="stroke:none;fill:rgb(137,18,18)"><path d="M 7252,10260 L 16838,10260 16838,10301 7252,10301 Z"/></g><g style="stroke:none;fill:rgb(137,19,19)"><path d="M 7252,10301 L 16838,10301 16838,10343 7252,10343 Z"/></g><g style="stroke:none;fill:rgb(138,20,20)"><path d="M 7252,10343 L 16838,10343 16838,10384 7252,10384 Z"/></g><g style="stroke:none;fill:rgb(138,21,21)"><path d="M 7252,10384 L 16838,10384 16838,10426 7252,10426 Z"/></g><g style="stroke:none;fill:rgb(139,22,22)"><path d="M 7252,10426 L 16838,10426 16838,10467 7252,10467 Z"/></g><g style="stroke:none;fill:rgb(139,23,23)"><path d="M 7252,10467 L 16838,10467 16838,10509 7252,10509 Z"/></g><g style="stroke:none;fill:rgb(140,24,24)"><path d="M 7252,10509 L 16838,10509 16838,10550 7252,10550 Z"/></g><g style="stroke:none;fill:rgb(140,25,25)"><path d="M 7252,10550 L 16838,10550 16838,10591 7252,10591 Z"/></g><g style="stroke:none;fill:rgb(141,26,26)"><path d="M 7252,10591 L 16838,10591 16838,10633 7252,10633 Z"/></g><g style="stroke:none;fill:rgb(141,27,27)"><path d="M 7252,10633 L 16838,10633 16838,10674 7252,10674 Z"/></g><g style="stroke:none;fill:rgb(142,28,28)"><path d="M 7252,10674 L 16838,10674 16838,10716 7252,10716 Z"/></g><g style="stroke:none;fill:rgb(142,29,29)"><path d="M 7252,10716 L 16838,10716 16838,10757 7252,10757 Z"/></g><g style="stroke:none;fill:rgb(143,30,30)"><path d="M 7252,10757 L 16838,10757 16838,10799 7252,10799 Z"/></g><g style="stroke:none;fill:rgb(143,31,31)"><path d="M 7252,10799 L 16838,10799 16838,10840 7252,10840 Z"/></g><g style="stroke:none;fill:rgb(144,32,32)"><path d="M 7252,10840 L 16838,10840 16838,10882 7252,10882 Z"/></g><g style="stroke:none;fill:rgb(144,33,33)"><path d="M 7252,10882 L 16838,10882 16838,10923 7252,10923 Z"/></g><g style="stroke:none;fill:rgb(145,34,34)"><path d="M 7252,10923 L 16838,10923 16838,10964 7252,10964 Z"/></g><g style="stroke:none;fill:rgb(145,35,35)"><path d="M 7252,10964 L 16838,10964 16838,11006 7252,11006 Z"/></g><g style="stroke:none;fill:rgb(146,36,36)"><path d="M 7252,11006 L 16838,11006 16838,11047 7252,11047 Z"/></g><g style="stroke:none;fill:rgb(146,37,37)"><path d="M 7252,11047 L 16838,11047 16838,11089 7252,11089 Z"/></g><g style="stroke:none;fill:rgb(147,38,38)"><path d="M 7252,11089 L 16838,11089 16838,11130 7252,11130 Z"/></g><g style="stroke:none;fill:rgb(147,39,39)"><path d="M 7252,11130 L 16838,11130 16838,11172 7252,11172 Z"/></g><g style="stroke:none;fill:rgb(148,40,40)"><path d="M 7252,11172 L 16838,11172 16838,11213 7252,11213 Z"/></g><g style="stroke:none;fill:rgb(148,41,41)"><path d="M 7252,11213 L 16838,11213 16838,11255 7252,11255 Z"/></g><g style="stroke:none;fill:rgb(149,42,42)"><path d="M 7252,11255 L 16838,11255 16838,11296 7252,11296 Z"/></g><g style="stroke:none;fill:rgb(149,43,43)"><path d="M 7252,11296 L 16838,11296 16838,11337 7252,11337 Z"/></g><g style="stroke:none;fill:rgb(150,44,44)"><path d="M 7252,11337 L 16838,11337 16838,11379 7252,11379 Z"/></g><g style="stroke:none;fill:rgb(150,45,45)"><path d="M 7252,11379 L 16838,11379 16838,11420 7252,11420 Z"/></g><g style="stroke:none;fill:rgb(151,46,46)"><path d="M 7252,11420 L 16838,11420 16838,11462 7252,11462 Z"/></g><g style="stroke:none;fill:rgb(151,47,47)"><path d="M 7252,11462 L 16838,11462 16838,11503 7252,11503 Z"/></g><g style="stroke:none;fill:rgb(152,48,48)"><path d="M 7252,11503 L 16838,11503 16838,11545 7252,11545 Z"/></g><g style="stroke:none;fill:rgb(152,49,49)"><path d="M 7252,11545 L 16838,11545 16838,11586 7252,11586 Z"/></g><g style="stroke:none;fill:rgb(153,50,50)"><path d="M 7252,11586 L 16838,11586 16838,11628 7252,11628 Z"/></g><g style="stroke:none;fill:rgb(153,51,51)"><path d="M 7252,11628 L 16838,11628 16838,11669 7252,11669 Z"/></g><g style="stroke:none;fill:rgb(154,52,52)"><path d="M 7252,11669 L 16838,11669 16838,11710 7252,11710 Z"/></g><g style="stroke:none;fill:rgb(154,53,53)"><path d="M 7252,11710 L 16838,11710 16838,11752 7252,11752 Z"/></g><g style="stroke:none;fill:rgb(155,54,54)"><path d="M 7252,11752 L 16838,11752 16838,11793 7252,11793 Z"/></g><g style="stroke:none;fill:rgb(155,55,55)"><path d="M 7252,11793 L 16838,11793 16838,11835 7252,11835 Z"/></g><g style="stroke:none;fill:rgb(156,56,56)"><path d="M 7252,11835 L 16838,11835 16838,11876 7252,11876 Z"/></g><g style="stroke:none;fill:rgb(156,57,57)"><path d="M 7252,11876 L 16838,11876 16838,11918 7252,11918 Z"/></g><g style="stroke:none;fill:rgb(157,58,58)"><path d="M 7252,11918 L 16838,11918 16838,11959 7252,11959 Z"/></g><g style="stroke:none;fill:rgb(157,59,59)"><path d="M 7252,11959 L 16838,11959 16838,12001 7252,12001 Z"/></g><g style="stroke:none;fill:rgb(158,60,60)"><path d="M 7252,12001 L 16838,12001 16838,12042 7252,12042 Z"/></g><g style="stroke:none;fill:rgb(158,61,61)"><path d="M 7252,12042 L 16838,12042 16838,12083 7252,12083 Z"/></g><g style="stroke:none;fill:rgb(159,62,62)"><path d="M 7252,12083 L 16838,12083 16838,12125 7252,12125 Z"/></g><g style="stroke:none;fill:rgb(159,63,63)"><path d="M 7252,12125 L 16838,12125 16838,12166 7252,12166 Z"/></g><g style="stroke:none;fill:rgb(160,64,64)"><path d="M 7252,12166 L 16838,12166 16838,12208 7252,12208 Z"/></g><g style="stroke:none;fill:rgb(160,65,65)"><path d="M 7252,12208 L 16838,12208 16838,12249 7252,12249 Z"/></g><g style="stroke:none;fill:rgb(161,66,66)"><path d="M 7252,12249 L 16838,12249 16838,12291 7252,12291 Z"/></g><g style="stroke:none;fill:rgb(161,67,67)"><path d="M 7252,12291 L 16838,12291 16838,12332 7252,12332 Z"/></g><g style="stroke:none;fill:rgb(162,68,68)"><path d="M 7252,12332 L 16838,12332 16838,12374 7252,12374 Z"/></g><g style="stroke:none;fill:rgb(162,69,69)"><path d="M 7252,12374 L 16838,12374 16838,12415 7252,12415 Z"/></g><g style="stroke:none;fill:rgb(163,70,70)"><path d="M 7252,12415 L 16838,12415 16838,12456 7252,12456 Z"/></g><g style="stroke:none;fill:rgb(163,71,71)"><path d="M 7252,12456 L 16838,12456 16838,12498 7252,12498 Z"/></g><g style="stroke:none;fill:rgb(164,72,72)"><path d="M 7252,12498 L 16838,12498 16838,12539 7252,12539 Z"/></g><g style="stroke:none;fill:rgb(164,73,73)"><path d="M 7252,12539 L 16838,12539 16838,12581 7252,12581 Z"/></g><g style="stroke:none;fill:rgb(165,74,74)"><path d="M 7252,12581 L 16838,12581 16838,12622 7252,12622 Z"/></g><g style="stroke:none;fill:rgb(165,75,75)"><path d="M 7252,12622 L 16838,12622 16838,12664 7252,12664 Z"/></g><g style="stroke:none;fill:rgb(166,76,76)"><path d="M 7252,12664 L 16838,12664 16838,12705 7252,12705 Z"/></g><g style="stroke:none;fill:rgb(166,77,77)"><path d="M 7252,12705 L 16838,12705 16838,12747 7252,12747 Z"/></g><g style="stroke:none;fill:rgb(167,78,78)"><path d="M 7252,12747 L 16838,12747 16838,12788 7252,12788 Z"/></g><g style="stroke:none;fill:rgb(167,79,79)"><path d="M 7252,12788 L 16838,12788 16838,12829 7252,12829 Z"/></g><g style="stroke:none;fill:rgb(168,80,80)"><path d="M 7252,12829 L 16838,12829 16838,12871 7252,12871 Z"/></g><g style="stroke:none;fill:rgb(168,81,81)"><path d="M 7252,12871 L 16838,12871 16838,12912 7252,12912 Z"/></g><g style="stroke:none;fill:rgb(169,82,82)"><path d="M 7252,12912 L 16838,12912 16838,12954 7252,12954 Z"/></g><g style="stroke:none;fill:rgb(169,83,83)"><path d="M 7252,12954 L 16838,12954 16838,12995 7252,12995 Z"/></g><g style="stroke:none;fill:rgb(170,84,84)"><path d="M 7252,12995 L 16838,12995 16838,13037 7252,13037 Z"/></g><g style="stroke:none;fill:rgb(170,85,85)"><path d="M 7252,13037 L 16838,13037 16838,13078 7252,13078 Z"/></g><g style="stroke:none;fill:rgb(171,86,86)"><path d="M 7252,13078 L 16838,13078 16838,13119 7252,13119 Z"/></g><g style="stroke:none;fill:rgb(171,87,87)"><path d="M 7252,13119 L 16838,13119 16838,13161 7252,13161 Z"/></g><g style="stroke:none;fill:rgb(172,88,88)"><path d="M 7252,13161 L 16838,13161 16838,13202 7252,13202 Z"/></g><g style="stroke:none;fill:rgb(172,89,89)"><path d="M 7252,13202 L 16838,13202 16838,13244 7252,13244 Z"/></g><g style="stroke:none;fill:rgb(173,90,90)"><path d="M 7252,13244 L 16838,13244 16838,13285 7252,13285 Z"/></g><g style="stroke:none;fill:rgb(173,91,91)"><path d="M 7252,13285 L 16838,13285 16838,13327 7252,13327 Z"/></g><g style="stroke:none;fill:rgb(174,92,92)"><path d="M 7252,13327 L 16838,13327 16838,13368 7252,13368 Z"/></g><g style="stroke:none;fill:rgb(174,93,93)"><path d="M 7252,13368 L 16838,13368 16838,13410 7252,13410 Z"/></g><g style="stroke:none;fill:rgb(175,94,94)"><path d="M 7252,13410 L 16838,13410 16838,13451 7252,13451 Z"/></g><g style="stroke:none;fill:rgb(175,95,95)"><path d="M 7252,13451 L 16838,13451 16838,13492 7252,13492 Z"/></g><g style="stroke:none;fill:rgb(176,96,96)"><path d="M 7252,13492 L 16838,13492 16838,13534 7252,13534 Z"/></g><g style="stroke:none;fill:rgb(176,97,97)"><path d="M 7252,13534 L 16838,13534 16838,13575 7252,13575 Z"/></g><g style="stroke:none;fill:rgb(177,98,98)"><path d="M 7252,13575 L 16838,13575 16838,13617 7252,13617 Z"/></g><g style="stroke:none;fill:rgb(177,99,99)"><path d="M 7252,13617 L 16838,13617 16838,13658 7252,13658 Z"/></g><g style="stroke:none;fill:rgb(178,100,100)"><path d="M 7252,13658 L 16838,13658 16838,13700 7252,13700 Z"/></g><g style="stroke:none;fill:rgb(178,101,101)"><path d="M 7252,13700 L 16838,13700 16838,13741 7252,13741 Z"/></g><g style="stroke:none;fill:rgb(179,102,102)"><path d="M 7252,13741 L 16838,13741 16838,13783 7252,13783 Z"/></g><g style="stroke:none;fill:rgb(179,103,103)"><path d="M 7252,13783 L 16838,13783 16838,13824 7252,13824 Z"/></g><g style="stroke:none;fill:rgb(180,104,104)"><path d="M 7252,13824 L 16838,13824 16838,13865 7252,13865 Z"/></g><g style="stroke:none;fill:rgb(180,105,105)"><path d="M 7252,13865 L 16838,13865 16838,13907 7252,13907 Z"/></g><g style="stroke:none;fill:rgb(181,106,106)"><path d="M 7252,13907 L 16838,13907 16838,13948 7252,13948 Z"/></g><g style="stroke:none;fill:rgb(181,107,107)"><path d="M 7252,13948 L 16838,13948 16838,13990 7252,13990 Z"/></g><g style="stroke:none;fill:rgb(182,108,108)"><path d="M 7252,13990 L 16838,13990 16838,14031 7252,14031 Z"/></g><g style="stroke:none;fill:rgb(182,109,109)"><path d="M 7252,14031 L 16838,14031 16838,14073 7252,14073 Z"/></g><g style="stroke:none;fill:rgb(183,110,110)"><path d="M 7252,14073 L 16838,14073 16838,14114 7252,14114 Z"/></g><g style="stroke:none;fill:rgb(183,111,111)"><path d="M 7252,14114 L 16838,14114 16838,14156 7252,14156 Z"/></g><g style="stroke:none;fill:rgb(184,112,112)"><path d="M 7252,14156 L 16838,14156 16838,14197 7252,14197 Z"/></g><g style="stroke:none;fill:rgb(184,113,113)"><path d="M 7252,14197 L 16838,14197 16838,14238 7252,14238 Z"/></g><g style="stroke:none;fill:rgb(185,114,114)"><path d="M 7252,14238 L 16838,14238 16838,14280 7252,14280 Z"/></g><g style="stroke:none;fill:rgb(185,115,115)"><path d="M 7252,14280 L 16838,14280 16838,14321 7252,14321 Z"/></g><g style="stroke:none;fill:rgb(186,116,116)"><path d="M 7252,14321 L 16838,14321 16838,14363 7252,14363 Z"/></g><g style="stroke:none;fill:rgb(186,117,117)"><path d="M 7252,14363 L 16838,14363 16838,14404 7252,14404 Z"/></g><g style="stroke:none;fill:rgb(187,118,118)"><path d="M 7252,14404 L 16838,14404 16838,14446 7252,14446 Z"/></g><g style="stroke:none;fill:rgb(187,119,119)"><path d="M 7252,14446 L 16838,14446 16838,14487 7252,14487 Z"/></g><g style="stroke:none;fill:rgb(188,120,120)"><path d="M 7252,14487 L 16838,14487 16838,14529 7252,14529 Z"/></g><g style="stroke:none;fill:rgb(188,121,121)"><path d="M 7252,14529 L 16838,14529 16838,14570 7252,14570 Z"/></g><g style="stroke:none;fill:rgb(189,122,122)"><path d="M 7252,14570 L 16838,14570 16838,14611 7252,14611 Z"/></g><g style="stroke:none;fill:rgb(189,123,123)"><path d="M 7252,14611 L 16838,14611 16838,14653 7252,14653 Z"/></g><g style="stroke:none;fill:rgb(190,124,124)"><path d="M 7252,14653 L 16838,14653 16838,14694 7252,14694 Z"/></g><g style="stroke:none;fill:rgb(190,125,125)"><path d="M 7252,14694 L 16838,14694 16838,14736 7252,14736 Z"/></g><g style="stroke:none;fill:rgb(191,126,126)"><path d="M 7252,14736 L 16838,14736 16838,14777 7252,14777 Z"/></g><g style="stroke:none;fill:rgb(191,127,127)"><path d="M 7252,14777 L 16838,14777 16838,14819 7252,14819 Z"/></g><g style="stroke:none;fill:rgb(191,128,128)"><path d="M 7252,14819 L 16838,14819 16838,14860 7252,14860 Z"/></g><g style="stroke:none;fill:rgb(192,129,129)"><path d="M 7252,14860 L 16838,14860 16838,14902 7252,14902 Z"/></g><g style="stroke:none;fill:rgb(192,130,130)"><path d="M 7252,14902 L 16838,14902 16838,14943 7252,14943 Z"/></g><g style="stroke:none;fill:rgb(193,131,131)"><path d="M 7252,14943 L 16838,14943 16838,14984 7252,14984 Z"/></g><g style="stroke:none;fill:rgb(193,132,132)"><path d="M 7252,14984 L 16838,14984 16838,15026 7252,15026 Z"/></g><g style="stroke:none;fill:rgb(194,133,133)"><path d="M 7252,15026 L 16838,15026 16838,15067 7252,15067 Z"/></g><g style="stroke:none;fill:rgb(194,134,134)"><path d="M 7252,15067 L 16838,15067 16838,15109 7252,15109 Z"/></g><g style="stroke:none;fill:rgb(195,135,135)"><path d="M 7252,15109 L 16838,15109 16838,15150 7252,15150 Z"/></g><g style="stroke:none;fill:rgb(195,136,136)"><path d="M 7252,15150 L 16838,15150 16838,15192 7252,15192 Z"/></g><g style="stroke:none;fill:rgb(196,137,137)"><path d="M 7252,15192 L 16838,15192 16838,15233 7252,15233 Z"/></g><g style="stroke:none;fill:rgb(196,138,138)"><path d="M 7252,15233 L 16838,15233 16838,15275 7252,15275 Z"/></g><g style="stroke:none;fill:rgb(197,139,139)"><path d="M 7252,15275 L 16838,15275 16838,15316 7252,15316 Z"/></g><g style="stroke:none;fill:rgb(197,140,140)"><path d="M 7252,15316 L 16838,15316 16838,15357 7252,15357 Z"/></g><g style="stroke:none;fill:rgb(198,141,141)"><path d="M 7252,15357 L 16838,15357 16838,15399 7252,15399 Z"/></g><g style="stroke:none;fill:rgb(198,142,142)"><path d="M 7252,15399 L 16838,15399 16838,15440 7252,15440 Z"/></g><g style="stroke:none;fill:rgb(199,143,143)"><path d="M 7252,15440 L 16838,15440 16838,15482 7252,15482 Z"/></g><g style="stroke:none;fill:rgb(199,144,144)"><path d="M 7252,15482 L 16838,15482 16838,15523 7252,15523 Z"/></g><g style="stroke:none;fill:rgb(200,145,145)"><path d="M 7252,15523 L 16838,15523 16838,15565 7252,15565 Z"/></g><g style="stroke:none;fill:rgb(200,146,146)"><path d="M 7252,15565 L 16838,15565 16838,15606 7252,15606 Z"/></g><g style="stroke:none;fill:rgb(201,147,147)"><path d="M 7252,15606 L 16838,15606 16838,15648 7252,15648 Z"/></g><g style="stroke:none;fill:rgb(201,148,148)"><path d="M 7252,15648 L 16838,15648 16838,15689 7252,15689 Z"/></g><g style="stroke:none;fill:rgb(202,149,149)"><path d="M 7252,15689 L 16838,15689 16838,15730 7252,15730 Z"/></g><g style="stroke:none;fill:rgb(202,150,150)"><path d="M 7252,15730 L 16838,15730 16838,15772 7252,15772 Z"/></g><g style="stroke:none;fill:rgb(203,151,151)"><path d="M 7252,15772 L 16838,15772 16838,15813 7252,15813 Z"/></g><g style="stroke:none;fill:rgb(203,152,152)"><path d="M 7252,15813 L 16838,15813 16838,15855 7252,15855 Z"/></g><g style="stroke:none;fill:rgb(204,153,153)"><path d="M 7252,15855 L 16838,15855 16838,15896 7252,15896 Z"/></g><g style="stroke:none;fill:rgb(204,154,154)"><path d="M 7252,15896 L 16838,15896 16838,15938 7252,15938 Z"/></g><g style="stroke:none;fill:rgb(205,155,155)"><path d="M 7252,15938 L 16838,15938 16838,15979 7252,15979 Z"/></g><g style="stroke:none;fill:rgb(205,156,156)"><path d="M 7252,15979 L 16838,15979 16838,16021 7252,16021 Z"/></g><g style="stroke:none;fill:rgb(206,157,157)"><path d="M 7252,16021 L 16838,16021 16838,16062 7252,16062 Z"/></g><g style="stroke:none;fill:rgb(206,158,158)"><path d="M 7252,16062 L 16838,16062 16838,16103 7252,16103 Z"/></g><g style="stroke:none;fill:rgb(207,159,159)"><path d="M 7252,16103 L 16838,16103 16838,16145 7252,16145 Z"/></g><g style="stroke:none;fill:rgb(207,160,160)"><path d="M 7252,16145 L 16838,16145 16838,16186 7252,16186 Z"/></g><g style="stroke:none;fill:rgb(208,161,161)"><path d="M 7252,16186 L 16838,16186 16838,16228 7252,16228 Z"/></g><g style="stroke:none;fill:rgb(208,162,162)"><path d="M 7252,16228 L 16838,16228 16838,16269 7252,16269 Z"/></g><g style="stroke:none;fill:rgb(209,163,163)"><path d="M 7252,16269 L 16838,16269 16838,16311 7252,16311 Z"/></g><g style="stroke:none;fill:rgb(209,164,164)"><path d="M 7252,16311 L 16838,16311 16838,16352 7252,16352 Z"/></g><g style="stroke:none;fill:rgb(210,165,165)"><path d="M 7252,16352 L 16838,16352 16838,16394 7252,16394 Z"/></g><g style="stroke:none;fill:rgb(210,166,166)"><path d="M 7252,16394 L 16838,16394 16838,16435 7252,16435 Z"/></g><g style="stroke:none;fill:rgb(211,167,167)"><path d="M 7252,16435 L 16838,16435 16838,16476 7252,16476 Z"/></g><g style="stroke:none;fill:rgb(211,168,168)"><path d="M 7252,16476 L 16838,16476 16838,16518 7252,16518 Z"/></g><g style="stroke:none;fill:rgb(212,169,169)"><path d="M 7252,16518 L 16838,16518 16838,16559 7252,16559 Z"/></g><g style="stroke:none;fill:rgb(212,170,170)"><path d="M 7252,16559 L 16838,16559 16838,16601 7252,16601 Z"/></g><g style="stroke:none;fill:rgb(213,171,171)"><path d="M 7252,16601 L 16838,16601 16838,16642 7252,16642 Z"/></g><g style="stroke:none;fill:rgb(213,172,172)"><path d="M 7252,16642 L 16838,16642 16838,16684 7252,16684 Z"/></g><g style="stroke:none;fill:rgb(214,173,173)"><path d="M 7252,16684 L 16838,16684 16838,16725 7252,16725 Z"/></g><g style="stroke:none;fill:rgb(214,174,174)"><path d="M 7252,16725 L 16838,16725 16838,16766 7252,16766 Z"/></g><g style="stroke:none;fill:rgb(215,175,175)"><path d="M 7252,16766 L 16838,16766 16838,16808 7252,16808 Z"/></g><g style="stroke:none;fill:rgb(215,176,176)"><path d="M 7252,16808 L 16838,16808 16838,16849 7252,16849 Z"/></g><g style="stroke:none;fill:rgb(216,177,177)"><path d="M 7252,16849 L 16838,16849 16838,16891 7252,16891 Z"/></g><g style="stroke:none;fill:rgb(216,178,178)"><path d="M 7252,16891 L 16838,16891 16838,16932 7252,16932 Z"/></g><g style="stroke:none;fill:rgb(217,179,179)"><path d="M 7252,16932 L 16838,16932 16838,16974 7252,16974 Z"/></g><g style="stroke:none;fill:rgb(217,180,180)"><path d="M 7252,16974 L 16838,16974 16838,17015 7252,17015 Z"/></g><g style="stroke:none;fill:rgb(218,181,181)"><path d="M 7252,17015 L 16838,17015 16838,17057 7252,17057 Z"/></g><g style="stroke:none;fill:rgb(218,182,182)"><path d="M 7252,17057 L 16838,17057 16838,17098 7252,17098 Z"/></g><g style="stroke:none;fill:rgb(219,183,183)"><path d="M 7252,17098 L 16838,17098 16838,17139 7252,17139 Z"/></g><g style="stroke:none;fill:rgb(219,184,184)"><path d="M 7252,17139 L 16838,17139 16838,17181 7252,17181 Z"/></g><g style="stroke:none;fill:rgb(220,185,185)"><path d="M 7252,17181 L 16838,17181 16838,17222 7252,17222 Z"/></g><g style="stroke:none;fill:rgb(220,186,186)"><path d="M 7252,17222 L 16838,17222 16838,17264 7252,17264 Z"/></g><g style="stroke:none;fill:rgb(221,187,187)"><path d="M 7252,17264 L 16838,17264 16838,17305 7252,17305 Z"/></g><g style="stroke:none;fill:rgb(221,188,188)"><path d="M 7252,17305 L 16838,17305 16838,17347 7252,17347 Z"/></g><g style="stroke:none;fill:rgb(222,189,189)"><path d="M 7252,17347 L 16838,17347 16838,17388 7252,17388 Z"/></g><g style="stroke:none;fill:rgb(222,190,190)"><path d="M 7252,17388 L 16838,17388 16838,17430 7252,17430 Z"/></g><g style="stroke:none;fill:rgb(223,191,191)"><path d="M 7252,17430 L 16838,17430 16838,17471 7252,17471 Z"/></g><g style="stroke:none;fill:rgb(223,192,192)"><path d="M 7252,17471 L 16838,17471 16838,17512 7252,17512 Z"/></g><g style="stroke:none;fill:rgb(224,193,193)"><path d="M 7252,17512 L 16838,17512 16838,17554 7252,17554 Z"/></g><g style="stroke:none;fill:rgb(224,194,194)"><path d="M 7252,17554 L 16838,17554 16838,17595 7252,17595 Z"/></g><g style="stroke:none;fill:rgb(225,195,195)"><path d="M 7252,17595 L 16838,17595 16838,17637 7252,17637 Z"/></g><g style="stroke:none;fill:rgb(225,196,196)"><path d="M 7252,17637 L 16838,17637 16838,17678 7252,17678 Z"/></g><g style="stroke:none;fill:rgb(226,197,197)"><path d="M 7252,17678 L 16838,17678 16838,17720 7252,17720 Z"/></g><g style="stroke:none;fill:rgb(226,198,198)"><path d="M 7252,17720 L 16838,17720 16838,17761 7252,17761 Z"/></g><g style="stroke:none;fill:rgb(227,199,199)"><path d="M 7252,17761 L 16838,17761 16838,17803 7252,17803 Z"/></g><g style="stroke:none;fill:rgb(227,200,200)"><path d="M 7252,17803 L 16838,17803 16838,17844 7252,17844 Z"/></g><g style="stroke:none;fill:rgb(228,201,201)"><path d="M 7252,17844 L 16838,17844 16838,17885 7252,17885 Z"/></g><g style="stroke:none;fill:rgb(228,202,202)"><path d="M 7252,17885 L 16838,17885 16838,17927 7252,17927 Z"/></g><g style="stroke:none;fill:rgb(229,203,203)"><path d="M 7252,17927 L 16838,17927 16838,17968 7252,17968 Z"/></g><g style="stroke:none;fill:rgb(229,204,204)"><path d="M 7252,17968 L 16838,17968 16838,18010 7252,18010 Z"/></g><g style="stroke:none;fill:rgb(230,205,205)"><path d="M 7252,18010 L 16838,18010 16838,18051 7252,18051 Z"/></g><g style="stroke:none;fill:rgb(230,206,206)"><path d="M 7252,18051 L 16838,18051 16838,18093 7252,18093 Z"/></g><g style="stroke:none;fill:rgb(231,207,207)"><path d="M 7252,18093 L 16838,18093 16838,18134 7252,18134 Z"/></g><g style="stroke:none;fill:rgb(231,208,208)"><path d="M 7252,18134 L 16838,18134 16838,18176 7252,18176 Z"/></g><g style="stroke:none;fill:rgb(232,209,209)"><path d="M 7252,18176 L 16838,18176 16838,18217 7252,18217 Z"/></g><g style="stroke:none;fill:rgb(232,210,210)"><path d="M 7252,18217 L 16838,18217 16838,18258 7252,18258 Z"/></g><g style="stroke:none;fill:rgb(233,211,211)"><path d="M 7252,18258 L 16838,18258 16838,18300 7252,18300 Z"/></g><g style="stroke:none;fill:rgb(233,212,212)"><path d="M 7252,18300 L 16838,18300 16838,18341 7252,18341 Z"/></g><g style="stroke:none;fill:rgb(234,213,213)"><path d="M 7252,18341 L 16838,18341 16838,18383 7252,18383 Z"/></g><g style="stroke:none;fill:rgb(234,214,214)"><path d="M 7252,18383 L 16838,18383 16838,18424 7252,18424 Z"/></g><g style="stroke:none;fill:rgb(235,215,215)"><path d="M 7252,18424 L 16838,18424 16838,18466 7252,18466 Z"/></g><g style="stroke:none;fill:rgb(235,216,216)"><path d="M 7252,18466 L 16838,18466 16838,18507 7252,18507 Z"/></g><g style="stroke:none;fill:rgb(236,217,217)"><path d="M 7252,18507 L 16838,18507 16838,18549 7252,18549 Z"/></g><g style="stroke:none;fill:rgb(236,218,218)"><path d="M 7252,18549 L 16838,18549 16838,18590 7252,18590 Z"/></g><g style="stroke:none;fill:rgb(237,219,219)"><path d="M 7252,18590 L 16838,18590 16838,18631 7252,18631 Z"/></g><g style="stroke:none;fill:rgb(237,220,220)"><path d="M 7252,18631 L 16838,18631 16838,18673 7252,18673 Z"/></g><g style="stroke:none;fill:rgb(238,221,221)"><path d="M 7252,18673 L 16838,18673 16838,18714 7252,18714 Z"/></g><g style="stroke:none;fill:rgb(238,222,222)"><path d="M 7252,18714 L 16838,18714 16838,18756 7252,18756 Z"/></g><g style="stroke:none;fill:rgb(239,223,223)"><path d="M 7252,18756 L 16838,18756 16838,18797 7252,18797 Z"/></g><g style="stroke:none;fill:rgb(239,224,224)"><path d="M 7252,18797 L 16838,18797 16838,18839 7252,18839 Z"/></g><g style="stroke:none;fill:rgb(240,225,225)"><path d="M 7252,18839 L 16838,18839 16838,18880 7252,18880 Z"/></g><g style="stroke:none;fill:rgb(240,226,226)"><path d="M 7252,18880 L 16838,18880 16838,18922 7252,18922 Z"/></g><g style="stroke:none;fill:rgb(241,227,227)"><path d="M 7252,18922 L 16838,18922 16838,18963 7252,18963 Z"/></g><g style="stroke:none;fill:rgb(241,228,228)"><path d="M 7252,18963 L 16838,18963 16838,19004 7252,19004 Z"/></g><g style="stroke:none;fill:rgb(242,229,229)"><path d="M 7252,19004 L 16838,19004 16838,19046 7252,19046 Z"/></g><g style="stroke:none;fill:rgb(242,230,230)"><path d="M 7252,19046 L 16838,19046 16838,19087 7252,19087 Z"/></g><g style="stroke:none;fill:rgb(243,231,231)"><path d="M 7252,19087 L 16838,19087 16838,19129 7252,19129 Z"/></g><g style="stroke:none;fill:rgb(243,232,232)"><path d="M 7252,19129 L 16838,19129 16838,19170 7252,19170 Z"/></g><g style="stroke:none;fill:rgb(244,233,233)"><path d="M 7252,19170 L 16838,19170 16838,19212 7252,19212 Z"/></g><g style="stroke:none;fill:rgb(244,234,234)"><path d="M 7252,19212 L 16838,19212 16838,19253 7252,19253 Z"/></g><g style="stroke:none;fill:rgb(245,235,235)"><path d="M 7252,19253 L 16838,19253 16838,19295 7252,19295 Z"/></g><g style="stroke:none;fill:rgb(245,236,236)"><path d="M 7252,19295 L 16838,19295 16838,19336 7252,19336 Z"/></g><g style="stroke:none;fill:rgb(246,237,237)"><path d="M 7252,19336 L 16838,19336 16838,19377 7252,19377 Z"/></g><g style="stroke:none;fill:rgb(246,238,238)"><path d="M 7252,19377 L 16838,19377 16838,19419 7252,19419 Z"/></g><g style="stroke:none;fill:rgb(247,239,239)"><path d="M 7252,19419 L 16838,19419 16838,19460 7252,19460 Z"/></g><g style="stroke:none;fill:rgb(247,240,240)"><path d="M 7252,19460 L 16838,19460 16838,19502 7252,19502 Z"/></g><g style="stroke:none;fill:rgb(248,241,241)"><path d="M 7252,19502 L 16838,19502 16838,19543 7252,19543 Z"/></g><g style="stroke:none;fill:rgb(248,242,242)"><path d="M 7252,19543 L 16838,19543 16838,19585 7252,19585 Z"/></g><g style="stroke:none;fill:rgb(249,243,243)"><path d="M 7252,19585 L 16838,19585 16838,19626 7252,19626 Z"/></g><g style="stroke:none;fill:rgb(249,244,244)"><path d="M 7252,19626 L 16838,19626 16838,19668 7252,19668 Z"/></g><g style="stroke:none;fill:rgb(250,245,245)"><path d="M 7252,19668 L 16838,19668 16838,19709 7252,19709 Z"/></g><g style="stroke:none;fill:rgb(250,246,246)"><path d="M 7252,19709 L 16838,19709 16838,19750 7252,19750 Z"/></g><g style="stroke:none;fill:rgb(251,247,247)"><path d="M 7252,19750 L 16838,19750 16838,19792 7252,19792 Z"/></g><g style="stroke:none;fill:rgb(251,248,248)"><path d="M 7252,19792 L 16838,19792 16838,19833 7252,19833 Z"/></g><g style="stroke:none;fill:rgb(252,249,249)"><path d="M 7252,19833 L 16838,19833 16838,19875 7252,19875 Z"/></g><g style="stroke:none;fill:rgb(252,250,250)"><path d="M 7252,19875 L 16838,19875 16838,19916 7252,19916 Z"/></g><g style="stroke:none;fill:rgb(253,251,251)"><path d="M 7252,19916 L 16838,19916 16838,19958 7252,19958 Z"/></g><g style="stroke:none;fill:rgb(253,252,252)"><path d="M 7252,19958 L 16838,19958 16838,19999 7252,19999 Z"/></g><g style="stroke:none;fill:rgb(254,253,253)"><path d="M 7252,19999 L 16838,19999 16838,20040 7252,20040 Z"/></g></g></g><g style="stroke:rgb(0,0,0);fill:none"><path style="fill:none" d="M 13738,20038 C 11577,16518 9415,12997 7254,9475 10449,10365 13642,11254 16836,12143 15804,14775 14770,17407 13738,20038"/></g><g/></g></g></g></svg>