<?xml version="1.0" encoding="UTF-8" standalone="no"?>

<svg 
	xmlns="http://www.w3.org/2000/svg" 
	xmlns:xlink="http://www.w3.org/1999/xlink"
	width="100%" height="100%"
	onload="alert('Holy Shit!')" >
<g stroke="black">
   <g id="g3" fill="none" stroke-width="2">
   
      <g id="g2">
         <ellipse id="g1" cx="100" cy="100" rx="75" ry="40"/>
         <use xlink:href="#g1" transform="rotate(30 100 100)"/>
         <use xlink:href="#g1" transform="rotate(60 100 100)"/>
      </g>
    
      <use xlink:href="#g2" transform="rotate(90 100 100)"/>
   </g>
</g>


<g stroke="blue" transform="translate(80,0)">
   <g id="g3" fill="none" stroke-width="2">
   
      <g id="g2">
         <ellipse id="g1" cx="100" cy="100" rx="75" ry="40"/>
         <use xlink:href="#g1" transform="rotate(30 100 100)"/>
         <use xlink:href="#g1" transform="rotate(60 100 100)"/>
      </g>
    
      <use xlink:href="#g2" transform="rotate(90 100 100)"/>
   </g>
</g>

<g stroke="red" transform="translate(0,80)">
   <g id="g3" fill="none" stroke-width="2">
   
      <g id="g2">
         <ellipse id="g1" cx="100" cy="100" rx="75" ry="40"/>
         <use xlink:href="#g1" transform="rotate(30 100 100)"/>
         <use xlink:href="#g1" transform="rotate(60 100 100)"/>
      </g>
    
      <use xlink:href="#g2" transform="rotate(90 100 100)"/>
   </g>
</g>

<g stroke="green" transform="translate(80,80)">
   <g id="g3" fill="none" stroke-width="2">
   
      <g id="g2">
         <ellipse id="g1" cx="100" cy="100" rx="75" ry="40"/>
         <use xlink:href="#g1" transform="rotate(30 100 100)"/>
         <use xlink:href="#g1" transform="rotate(60 100 100)"/>
      </g>
    
      <use xlink:href="#g2" transform="rotate(90 100 100)"/>
   </g>
</g>
<clipPath id="CP">
<ellipse cx="500" cy="270" rx="150" ry="240"/>
</clipPath>

<image xlink:href="icy_cathedral.jpg" y="30" x="350" 
width="300" height="480" preserveAspectRatio="none" 
clip-path="url(#CP)"/>

<ellipse cx="500" cy="270" rx="150" ry="240" fill="none" stroke="pink"
stroke-width="3"/>

</svg>
