<?xml version="1.0" encoding="UTF-8" standalone="no"?>
<!-- Created with Inkscape (http://www.inkscape.org/) -->

<svg
   xmlns:dc="http://purl.org/dc/elements/1.1/"
   xmlns:cc="http://creativecommons.org/ns#"
   xmlns:rdf="http://www.w3.org/1999/02/22-rdf-syntax-ns#"
   xmlns:svg="http://www.w3.org/2000/svg"
   xmlns="http://www.w3.org/2000/svg"
   xmlns:sodipodi="http://sodipodi.sourceforge.net/DTD/sodipodi-0.dtd"
   xmlns:inkscape="http://www.inkscape.org/namespaces/inkscape"
   xmlns:xlink="http://www.w3.org/1999/xlink"
   sodipodi:docname="inkscape-1.svg"
   inkscape:version="0.47 r22583"
   version="1.1"
   id="svg2"
   height="575"
   width="750">

<rect
	y="100"
	x="0"
	height="2"
	width="80.817421"
	fill="pink"
	/>
<circle cx="250" cy="250" r="10" fill="white" stroke="black" 
	stroke-width="3"
	/>

<!--<circle>Empty Circle</circle>-->
<g transform="translate(300,200)" fill="lightgreen">
<g id="g0">
<circle cx="0" cy="0" r="30" stroke="blue" stroke-width="3" transform="scale(2.0)"/>
<text y="45" x="100" fill="red" transform="rotate(90,100,100)">Hello World! This is SVG.</text>
</g>
</g>

<ellipse cx="335" cy="25" rx="70" ry="25"/>
<ellipse cx="335" cy="80" rx="90" ry="25"/>
<path d="M 270 140 A 65 30 0 1 1 270 141 M 308
	128 A 25 7 0 1 1 308 129" clip-rule="evenodd"/>

<g>
	<ellipse id="g1" cx="500" cy="400" rx="75" ry="40" fill="yellow"/>
	<use xlink:href="#g1"/>
</g>
<g fill="green">
<use xlink:href="#g1" transform="scale(0.5)" />
</g>

<use transform="translate(100,100)" xlink:href="#g0"/>

<!-- same as closed polyline-->
<polygon points="220,100 300,210 170,250 100,100" 
	transform="translate(0,25	0)"
	style="fill:#FFF;stroke:red;stroke-width:2"/>

<polyline points="220,100 300,210 170,250 100,100 " 
	transform="translate(450,100)"
	style="fill:#FFF;stroke:red;stroke-width:2"/>

</svg>
